<svg width="48" height="48" viewBox="0 0 48 48" fill="none" xmlns="http://www.w3.org/2000/svg">
<g clip-path="url(#clip0_100_213)">
<path fill-rule="evenodd" clip-rule="evenodd" d="M19.6416 6.25365C14.3386 9.11134 8.4049 13.6477 6.21651 16.5162C4.85628 18.2996 4.63386 19.1636 4.99014 21.2824C5.71623 25.5956 6.65662 28.3323 9.53933 34.5169C12.0286 39.8584 12.5302 40.5 14.7193 41.1436C18.9311 42.3814 27.0032 42.6201 31.6781 41.6452L36.0725 40.7285L38.2501 36.6938C40.7217 32.1142 42.9237 25.9046 43.5754 21.6792C43.956 19.213 43.7586 18.4727 42.1618 16.3789C39.897 13.4104 33.371 8.52114 28.1485 5.88114C26.0209 4.80553 24.1956 3.93274 24.0921 3.94153C23.988 3.94965 21.9855 4.9901 19.6416 6.25365ZM28.7217 7.35156C32.9086 9.55348 37.2313 12.8526 40.498 16.3377C41.9562 17.8933 42.4896 19.1285 42.4917 20.9558C42.4957 23.7784 39.8138 31.7626 37.2739 36.4923C35.4796 39.8334 35.0577 40.0531 28.3364 41.1544C24.5768 41.7696 16.2904 40.9096 13.9283 39.6583C11.5242 38.3846 5.988 24.7816 5.988 20.1473C5.988 18.7884 6.89054 17.3646 9.19927 15.0836C12.3767 11.944 22.4216 5.2781 23.9758 5.2781C24.418 5.2781 26.5536 6.21105 28.7217 7.35156Z" fill="white"/>
<path d="M9.45017 29.1348C10.1114 29.7818 23.5648 37.1287 24.4423 37.6487C25.0923 37.2587 39.2029 29.4351 39.2042 29.1789C30.1621 32.4489 15.5701 31.149 9.45017 29.1348Z" fill="white"/>
<path d="M13.8499 27.7184V14.4431H22.4302V17.0489H17.0585V19.7714H21.957V22.3836H17.0585V25.1126H22.4302V27.7184H13.8499Z" fill="white"/>
<path d="M31.6153 18.4231C31.5721 17.9477 31.3798 17.5783 31.0384 17.3147C30.7013 17.0467 30.2195 16.9128 29.5929 16.9128C29.178 16.9128 28.8323 16.9668 28.5558 17.0748C28.2792 17.1829 28.0718 17.3319 27.9335 17.5221C27.7952 17.7079 27.7239 17.9218 27.7196 18.1638C27.7109 18.3626 27.7498 18.5376 27.8362 18.6889C27.927 18.8401 28.0566 18.9741 28.2252 19.0907C28.398 19.2031 28.6055 19.3025 28.8475 19.3889C29.0894 19.4753 29.3617 19.551 29.6642 19.6158L30.805 19.8751C31.4619 20.0177 32.041 20.2078 32.5422 20.4455C33.0478 20.6832 33.4713 20.9662 33.8127 21.2946C34.1584 21.6231 34.4199 22.0012 34.5971 22.429C34.7742 22.8568 34.865 23.3365 34.8693 23.868C34.865 24.7064 34.6532 25.4259 34.2341 26.0266C33.8149 26.6272 33.212 27.0875 32.4256 27.4072C31.6434 27.727 30.6992 27.8869 29.5929 27.8869C28.4823 27.8869 27.5143 27.7205 26.6889 27.3878C25.8635 27.0551 25.2218 26.5494 24.7637 25.871C24.3057 25.1925 24.0702 24.3347 24.0572 23.2976H27.1297C27.1556 23.7254 27.2701 24.0819 27.4733 24.3672C27.6764 24.6524 27.9551 24.8684 28.3094 25.0154C28.6681 25.1623 29.083 25.2357 29.554 25.2357C29.9861 25.2357 30.3535 25.1774 30.656 25.0607C30.9628 24.9441 31.1983 24.782 31.3625 24.5746C31.5267 24.3672 31.611 24.1295 31.6153 23.8615C31.611 23.6109 31.5332 23.397 31.3819 23.2198C31.2307 23.0383 30.9973 22.8828 30.6819 22.7531C30.3707 22.6192 29.9732 22.496 29.4892 22.3836L28.102 22.0595C26.9525 21.7959 26.0472 21.3703 25.386 20.7826C24.7249 20.1905 24.3964 19.3911 24.4008 18.3842C24.3964 17.5631 24.6168 16.8436 25.0619 16.2257C25.507 15.6077 26.1228 15.1259 26.9093 14.7802C27.6958 14.4345 28.5925 14.2616 29.5994 14.2616C30.6279 14.2616 31.5202 14.4366 32.2765 14.7866C33.037 15.1324 33.6269 15.6185 34.0461 16.2451C34.4653 16.8717 34.6792 17.5977 34.6878 18.4231H31.6153Z" fill="white"/>
<path d="M46.4991 23.9796C46.4991 36.5027 36.3471 46.6548 23.8239 46.6548C11.3007 46.6548 1.14871 36.5027 1.14871 23.9796C1.14871 11.4564 11.3007 1.30435 23.8239 1.30435C36.3471 1.30435 46.4991 11.4564 46.4991 23.9796Z" stroke="white" stroke-width="1.35211"/>
</g>
<defs>
<clipPath id="clip0_100_213">
<rect width="48" height="48" fill="white"/>
</clipPath>
</defs>
</svg>
