<svg width="158" height="125" viewBox="0 0 158 125" fill="none" xmlns="http://www.w3.org/2000/svg">
<path opacity="0.17" d="M67.7669 0L43.4592 88.2353L35.3566 55.1471C45.9145 55.1471 54.5082 58.2108 61.1375 64.3382C67.7669 70.4657 71.0816 78.9216 71.0816 89.7059C71.0816 100.245 67.6441 108.824 60.7692 115.441C54.1399 121.814 45.7918 125 35.7249 125C25.4126 125 16.819 121.814 9.94406 115.441C3.31469 108.824 0 100.245 0 89.7059C0 86.5196 0.245532 83.4559 0.736597 80.5147C1.22766 77.3284 2.20979 73.652 3.68298 69.4853C5.15618 65.3186 7.2432 59.8039 9.94406 52.9412L31.3054 0H67.7669ZM154.685 0L130.378 88.2353L122.275 55.1471C132.833 55.1471 141.427 58.2108 148.056 64.3382C154.685 70.4657 158 78.9216 158 89.7059C158 100.245 154.563 108.824 147.688 115.441C141.058 121.814 132.71 125 122.643 125C112.331 125 103.737 121.814 96.8625 115.441C90.2331 108.824 86.9184 100.245 86.9184 89.7059C86.9184 86.5196 87.1639 83.4559 87.655 80.5147C88.1461 77.3284 89.1282 73.652 90.6014 69.4853C92.0746 65.3186 94.1616 59.8039 96.8625 52.9412L118.224 0H154.685Z" fill="#6B81BD"/>
</svg>
