<svg width="23" height="26" viewBox="0 0 23 26" fill="none" xmlns="http://www.w3.org/2000/svg">
<path d="M20.3136 3.33577C19.7183 2.78733 17.3089 1.03889 11.9371 1.01546C11.9371 1.01546 5.60425 0.635769 2.51987 3.46702C0.804247 5.18264 0.199559 7.69983 0.133934 10.817C0.0683089 13.9342 -0.0113786 19.7748 5.61831 21.3592H5.623L5.61831 23.778C5.61831 23.778 5.58081 24.7576 6.22768 24.9545C7.00581 25.1983 7.46518 24.453 8.2105 23.6514C8.61831 23.2108 9.18081 22.5639 9.60737 22.0717C13.4605 22.3951 16.4183 21.6545 16.7558 21.5467C17.5339 21.2936 21.9355 20.7311 22.648 14.8905C23.3886 8.86233 22.2917 5.05608 20.3136 3.33577ZM20.9652 14.4498C20.3605 19.3248 16.7933 19.6342 16.1371 19.8451C15.8558 19.9342 13.2542 20.5811 9.98706 20.3701C9.98706 20.3701 7.54956 23.3092 6.79018 24.0733C6.54175 24.3217 6.26987 24.2983 6.27456 23.8061C6.27456 23.4826 6.29331 19.7889 6.29331 19.7889C6.28862 19.7889 6.28862 19.7889 6.29331 19.7889C1.52143 18.467 1.80268 13.4936 1.85425 10.892C1.90581 8.29046 2.398 6.15764 3.85112 4.72327C6.46206 2.35608 11.8386 2.70764 11.8386 2.70764C16.3808 2.72639 18.5558 4.09514 19.0621 4.55452C20.7355 5.98889 21.5886 9.42014 20.9652 14.4498ZM14.4496 10.6623C14.4683 11.0655 13.8636 11.0936 13.8449 10.6905C13.7933 9.65921 13.3105 9.15764 12.3167 9.10139C11.9136 9.07796 11.9511 8.47327 12.3496 8.49671C13.6574 8.56702 14.3839 9.31702 14.4496 10.6623ZM15.4011 11.192C15.448 9.20452 14.2058 7.64827 11.848 7.47483C11.4496 7.44671 11.4917 6.84202 11.8902 6.87014C14.6089 7.06702 16.0574 8.93733 16.0058 11.2061C16.0011 11.6092 15.3917 11.5905 15.4011 11.192ZM17.6042 11.8201C17.6089 12.2233 16.9996 12.228 16.9996 11.8248C16.9714 8.00452 14.4261 5.92327 11.3371 5.89983C10.9386 5.89514 10.9386 5.29514 11.3371 5.29514C14.7917 5.31858 17.5714 7.70452 17.6042 11.8201ZM17.0746 16.4186V16.428C16.5683 17.3186 15.6214 18.303 14.6464 17.9889L14.6371 17.9748C13.648 17.6983 11.3183 16.4983 9.84643 15.3264C9.08706 14.7264 8.39331 14.0186 7.85893 13.3389C7.37612 12.7342 6.88862 12.017 6.41518 11.1545C5.41675 9.34983 5.19643 8.54358 5.19643 8.54358C4.88237 7.56858 5.86206 6.62171 6.75737 6.11546H6.76675C7.198 5.89046 7.6105 5.96546 7.88706 6.29827C7.88706 6.29827 8.46831 6.99202 8.71675 7.33421C8.95112 7.65296 9.26518 8.16389 9.42925 8.44983C9.71518 8.96077 9.53706 9.48108 9.25581 9.69671L8.69331 10.1467C8.40737 10.3764 8.44487 10.803 8.44487 10.803C8.44487 10.803 9.27925 13.9576 12.3964 14.7545C12.3964 14.7545 12.823 14.792 13.0527 14.5061L13.5027 13.9436C13.7183 13.6623 14.2386 13.4842 14.7496 13.7701C15.4386 14.1592 16.3152 14.7639 16.8964 15.3123C17.2246 15.5795 17.2996 15.9873 17.0746 16.4186Z" fill="white"/>
</svg>
