<svg width="22" height="23" viewBox="0 0 22 23" fill="none" xmlns="http://www.w3.org/2000/svg">
<g clip-path="url(#clip0_68_136)">
<path d="M20.3547 5.58737C17.0638 0.499832 10.3448 -1.01268 5.13415 2.14984C0.0606262 5.31237 -1.58484 12.1874 1.70609 17.275L1.98034 17.6875L0.883359 21.8125L4.99702 20.7125L5.40839 20.9875C7.19098 21.95 9.11069 22.5 11.0304 22.5C13.0872 22.5 15.1441 21.95 16.9266 20.85C22.0002 17.55 23.5085 10.8124 20.3547 5.58737ZM17.4751 16.175C16.9266 17 16.241 17.55 15.2812 17.6875C14.7327 17.6875 14.0471 17.9625 11.3046 16.8625C8.97356 15.7624 7.05385 13.9749 5.68263 11.9124C4.8599 10.9499 4.44853 9.7124 4.31141 8.47489C4.31141 7.37488 4.72278 6.41238 5.40839 5.72487C5.68263 5.44987 5.95688 5.31237 6.23112 5.31237H6.91673C7.19098 5.31237 7.46522 5.31237 7.60234 5.86237C7.87659 6.54988 8.5622 8.19989 8.5622 8.33739C8.69932 8.47489 8.69932 8.7499 8.5622 8.8874C8.69932 9.1624 8.5622 9.4374 8.42508 9.5749C8.28796 9.7124 8.15083 9.9874 8.01371 10.1249C7.73947 10.2624 7.60234 10.5374 7.73947 10.8124C8.28795 11.6374 8.97357 12.4624 9.65918 13.1499C10.4819 13.8374 11.3046 14.3874 12.2645 14.7999C12.5387 14.9374 12.813 14.9374 12.9501 14.6624C13.0872 14.3874 13.7728 13.6999 14.0471 13.4249C14.3213 13.1499 14.4585 13.1499 14.7327 13.2874L16.9266 14.3874C17.2009 14.5249 17.4751 14.6624 17.6123 14.7999C17.7494 15.2124 17.7494 15.7624 17.4751 16.175Z" fill="white"/>
</g>
<defs>
<clipPath id="clip0_68_136">
<rect width="22" height="22" fill="white" transform="translate(0 0.5)"/>
</clipPath>
</defs>
</svg>
