<svg width="20" height="20" viewBox="0 0 20 20" fill="none" xmlns="http://www.w3.org/2000/svg">
<path d="M10.0078 1.25C8.18508 1.25207 6.4376 1.97706 5.14874 3.26592C3.85987 4.55479 3.13488 6.30227 3.13281 8.125C3.13281 14.0078 9.38281 18.4531 9.64844 18.6406C9.75489 18.7115 9.87992 18.7493 10.0078 18.7493C10.1357 18.7493 10.2607 18.7115 10.3672 18.6406C10.6328 18.4531 16.8828 14.0078 16.8828 8.125C16.8807 6.30227 16.1558 4.55479 14.8669 3.26592C13.578 1.97706 11.8305 1.25207 10.0078 1.25ZM10.0078 5.625C10.5023 5.625 10.9856 5.77162 11.3967 6.04633C11.8079 6.32103 12.1283 6.71148 12.3175 7.16829C12.5067 7.62511 12.5562 8.12777 12.4598 8.61273C12.3633 9.09768 12.1252 9.54314 11.7756 9.89277C11.4259 10.2424 10.9805 10.4805 10.4955 10.577C10.0106 10.6734 9.50792 10.6239 9.0511 10.4347C8.59429 10.2455 8.20384 9.92505 7.92914 9.51393C7.65444 9.1028 7.50781 8.61945 7.50781 8.125C7.50781 7.46196 7.7712 6.82607 8.24005 6.35723C8.70889 5.88839 9.34477 5.625 10.0078 5.625Z" fill="url(#paint0_linear_100_74)" fill-opacity="0.6"/>
<defs>
<linearGradient id="paint0_linear_100_74" x1="3.88281" y1="2.49995" x2="17.8073" y2="3.26211" gradientUnits="userSpaceOnUse">
<stop stop-color="white"/>
<stop offset="0.863681" stop-color="white" stop-opacity="0.73"/>
<stop offset="1" stop-color="white" stop-opacity="0.38"/>
</linearGradient>
</defs>
</svg>
